<svg xmlns="http://www.w3.org/2000/svg" width="1140" height="1726" viewBox="0 0 1140 1726" fill="none" role="img" aria-label="Flowchart alur HRD perusahaan, dari verifikasi sampai lowongan ditutup otomatis">
  <title>KerjaKink — Alur Perusahaan / HRD</title>
  <defs>
    <marker id="ah-1890FF" viewBox="0 0 10 10" refX="8" refY="5" markerWidth="7" markerHeight="7" orient="auto-start-reverse"><path d="M0 0 L10 5 L0 10 z" fill="#1890FF"></path></marker>
    <marker id="ah-8C8C8C" viewBox="0 0 10 10" refX="8" refY="5" markerWidth="7" markerHeight="7" orient="auto-start-reverse"><path d="M0 0 L10 5 L0 10 z" fill="#8C8C8C"></path></marker>
    <marker id="ah-237804" viewBox="0 0 10 10" refX="8" refY="5" markerWidth="7" markerHeight="7" orient="auto-start-reverse"><path d="M0 0 L10 5 L0 10 z" fill="#237804"></path></marker>
    <marker id="ah-CF1322" viewBox="0 0 10 10" refX="8" refY="5" markerWidth="7" markerHeight="7" orient="auto-start-reverse"><path d="M0 0 L10 5 L0 10 z" fill="#CF1322"></path></marker>
    <marker id="ah-D48806" viewBox="0 0 10 10" refX="8" refY="5" markerWidth="7" markerHeight="7" orient="auto-start-reverse"><path d="M0 0 L10 5 L0 10 z" fill="#D48806"></path></marker>
  </defs>
  <rect width="1140" height="1726" fill="#FFFFFF"></rect>
  <rect x="270" y="40" width="300" height="56" rx="28" fill="#262626"></rect>
  <text x="420" y="72.9" font-family="Poppins, system-ui, sans-serif" font-size="14" font-weight="600" fill="#FFFFFF" text-anchor="middle">HRD perusahaan mendaftar di KerjaKink</text>
  <path d="M420 96 V126" fill="none" stroke="#1890FF" stroke-width="2" marker-end="url(#ah-1890FF)"></path>
  <rect x="270" y="130" width="300" height="66" rx="8" fill="#FFFFFF" stroke="#D9D9D9" stroke-width="2"></rect>
  <text x="420" y="158.4" font-family="Poppins, system-ui, sans-serif" font-size="14" font-weight="500" fill="#262626" text-anchor="middle">Unggah dokumen legal:</text>
  <text x="420" y="177.4" font-family="Poppins, system-ui, sans-serif" font-size="14" font-weight="500" fill="#262626" text-anchor="middle">NIB, akta, surat domisili</text>
  <path d="M420 196 V226" fill="none" stroke="#1890FF" stroke-width="2" marker-end="url(#ah-1890FF)"></path>
  <rect x="270" y="230" width="300" height="58" rx="8" fill="#FFFBE6" stroke="#FFE58F" stroke-width="2"></rect>
  <text x="420" y="263.9" font-family="Poppins, system-ui, sans-serif" font-size="14" font-weight="600" fill="#D48806" text-anchor="middle">Status perusahaan: Pending</text>
  <path d="M420 288 V318" fill="none" stroke="#1890FF" stroke-width="2" marker-end="url(#ah-1890FF)"></path>
  <polygon points="420,322 570,370 420,418 270,370" fill="#FFFBE6" stroke="#FFE58F" stroke-width="2"></polygon>
  <text x="420" y="374.7" font-family="Poppins, system-ui, sans-serif" font-size="13.5" font-weight="600" fill="#D48806" text-anchor="middle">Disetujui Admin BKK?</text>
  <path d="M570 370 H726" fill="none" stroke="#1890FF" stroke-width="2" marker-end="url(#ah-1890FF)"></path>
  <rect x="624.5" y="360" width="51" height="20" rx="4" fill="#FFFFFF" stroke="#D9D9D9"></rect>
  <text x="650" y="374.5" font-family="Poppins, system-ui, sans-serif" font-size="11.5" font-weight="600" fill="#595959" text-anchor="middle">Tidak</text>
  <rect x="730" y="342" width="300" height="56" rx="8" fill="#FFF1F0" stroke="#FFA39E" stroke-width="2"></rect>
  <text x="880" y="374.6" font-family="Poppins, system-ui, sans-serif" font-size="13" font-weight="600" fill="#CF1322" text-anchor="middle">Ditolak / Blacklist — tidak bisa memasang lowongan</text>
  <path d="M420 418 V448" fill="none" stroke="#1890FF" stroke-width="2" marker-end="url(#ah-1890FF)"></path>
  <rect x="405" y="425" width="30" height="20" rx="4" fill="#FFFFFF" stroke="#D9D9D9"></rect>
  <text x="420" y="439.5" font-family="Poppins, system-ui, sans-serif" font-size="11.5" font-weight="600" fill="#595959" text-anchor="middle">Ya</text>
  <rect x="270" y="452" width="300" height="58" rx="8" fill="#F6FFED" stroke="#B7EB8F" stroke-width="2"></rect>
  <text x="420" y="485.9" font-family="Poppins, system-ui, sans-serif" font-size="14" font-weight="600" fill="#237804" text-anchor="middle">Status: Verified — boleh memasang lowongan</text>
  <path d="M420 510 V540" fill="none" stroke="#1890FF" stroke-width="2" marker-end="url(#ah-1890FF)"></path>
  <rect x="270" y="544" width="300" height="66" rx="8" fill="#FFFFFF" stroke="#D9D9D9" stroke-width="2"></rect>
  <text x="420" y="572.4" font-family="Poppins, system-ui, sans-serif" font-size="14" font-weight="500" fill="#262626" text-anchor="middle">Buat lowongan:</text>
  <text x="420" y="591.4" font-family="Poppins, system-ui, sans-serif" font-size="14" font-weight="500" fill="#262626" text-anchor="middle">deskripsi, lokasi, batas waktu</text>
  <path d="M420 610 V640" fill="none" stroke="#1890FF" stroke-width="2" marker-end="url(#ah-1890FF)"></path>
  <rect x="270" y="644" width="300" height="66" rx="8" fill="#FFFFFF" stroke="#D9D9D9" stroke-width="2"></rect>
  <text x="420" y="672.4" font-family="Poppins, system-ui, sans-serif" font-size="14" font-weight="500" fill="#262626" text-anchor="middle">Tambahkan posisi &amp; kuota</text>
  <text x="420" y="691.4" font-family="Poppins, system-ui, sans-serif" font-size="14" font-weight="500" fill="#262626" text-anchor="middle">satu lowongan bisa banyak posisi</text>
  <path d="M420 710 V740" fill="none" stroke="#1890FF" stroke-width="2" marker-end="url(#ah-1890FF)"></path>
  <rect x="270" y="744" width="300" height="66" rx="8" fill="#1890FF" stroke="#1890FF" stroke-width="2"></rect>
  <text x="420" y="772.4" font-family="Poppins, system-ui, sans-serif" font-size="14" font-weight="600" fill="#FFFFFF" text-anchor="middle">Susun tahapan seleksi (2 sampai 7+)</text>
  <text x="420" y="791.4" font-family="Poppins, system-ui, sans-serif" font-size="14" font-weight="600" fill="#FFFFFF" text-anchor="middle">lalu publikasikan lowongan</text>
  <path d="M420 810 V840" fill="none" stroke="#1890FF" stroke-width="2" marker-end="url(#ah-1890FF)"></path>
  <rect x="270" y="844" width="300" height="66" rx="8" fill="#FFFFFF" stroke="#D9D9D9" stroke-width="2"></rect>
  <text x="420" y="872.4" font-family="Poppins, system-ui, sans-serif" font-size="14" font-weight="500" fill="#262626" text-anchor="middle">Lamaran masuk</text>
  <text x="420" y="891.4" font-family="Poppins, system-ui, sans-serif" font-size="14" font-weight="500" fill="#262626" text-anchor="middle">notifikasi ke dashboard HRD</text>
  <path d="M420 910 V940" fill="none" stroke="#1890FF" stroke-width="2" marker-end="url(#ah-1890FF)"></path>
  <rect x="270" y="944" width="300" height="58" rx="8" fill="#FFFFFF" stroke="#D9D9D9" stroke-width="2"></rect>
  <text x="420" y="977.9" font-family="Poppins, system-ui, sans-serif" font-size="14" font-weight="500" fill="#262626" text-anchor="middle">Tinjau kandidat &amp; CV snapshot</text>
  <path d="M420 1002 V1032" fill="none" stroke="#1890FF" stroke-width="2" marker-end="url(#ah-1890FF)"></path>
  <polygon points="420,1036 570,1084 420,1132 270,1084" fill="#FFFBE6" stroke="#FFE58F" stroke-width="2"></polygon>
  <text x="420" y="1088.7" font-family="Poppins, system-ui, sans-serif" font-size="13.5" font-weight="600" fill="#D48806" text-anchor="middle">Kandidat lolos tahap ini?</text>
  <path d="M570 1084 H726" fill="none" stroke="#1890FF" stroke-width="2" marker-end="url(#ah-1890FF)"></path>
  <rect x="624.5" y="1074" width="51" height="20" rx="4" fill="#FFFFFF" stroke="#D9D9D9"></rect>
  <text x="650" y="1088.5" font-family="Poppins, system-ui, sans-serif" font-size="11.5" font-weight="600" fill="#595959" text-anchor="middle">Tidak</text>
  <rect x="730" y="1056" width="300" height="56" rx="8" fill="#FFF1F0" stroke="#FFA39E" stroke-width="2"></rect>
  <text x="880" y="1088.5" font-family="Poppins, system-ui, sans-serif" font-size="13" font-weight="600" fill="#CF1322" text-anchor="middle">Tolak — notifikasi privat ke pelamar</text>
  <path d="M420 1132 V1162" fill="none" stroke="#1890FF" stroke-width="2" marker-end="url(#ah-1890FF)"></path>
  <rect x="394.5" y="1139" width="51" height="20" rx="4" fill="#FFFFFF" stroke="#D9D9D9"></rect>
  <text x="420" y="1153.5" font-family="Poppins, system-ui, sans-serif" font-size="11.5" font-weight="600" fill="#595959" text-anchor="middle">Lolos</text>
  <rect x="270" y="1166" width="300" height="66" rx="8" fill="#FFFFFF" stroke="#D9D9D9" stroke-width="2"></rect>
  <text x="420" y="1194.4" font-family="Poppins, system-ui, sans-serif" font-size="14" font-weight="500" fill="#262626" text-anchor="middle">Pindahkan ke tahap berikutnya</text>
  <text x="420" y="1213.4" font-family="Poppins, system-ui, sans-serif" font-size="14" font-weight="500" fill="#262626" text-anchor="middle">pelamar menerima notifikasi</text>
  <path d="M420 1232 V1262" fill="none" stroke="#1890FF" stroke-width="2" marker-end="url(#ah-1890FF)"></path>
  <polygon points="420,1266 570,1314 420,1362 270,1314" fill="#FFFBE6" stroke="#FFE58F" stroke-width="2"></polygon>
  <text x="420" y="1318.7" font-family="Poppins, system-ui, sans-serif" font-size="13.5" font-weight="600" fill="#D48806" text-anchor="middle">Sudah tahap terakhir?</text>
  <path d="M570 1314 H726" fill="none" stroke="#1890FF" stroke-width="2" marker-end="url(#ah-1890FF)"></path>
  <rect x="624.5" y="1304" width="51" height="20" rx="4" fill="#FFFFFF" stroke="#D9D9D9"></rect>
  <text x="650" y="1318.5" font-family="Poppins, system-ui, sans-serif" font-size="11.5" font-weight="600" fill="#595959" text-anchor="middle">Belum</text>
  <rect x="730" y="1286" width="300" height="56" rx="8" fill="#FAFAFA" stroke="#D9D9D9" stroke-width="2"></rect>
  <text x="880" y="1318.5" font-family="Poppins, system-ui, sans-serif" font-size="13" font-weight="500" fill="#595959" text-anchor="middle">Lanjut proses tahap berikutnya</text>
  <path d="M420 1362 V1392" fill="none" stroke="#1890FF" stroke-width="2" marker-end="url(#ah-1890FF)"></path>
  <rect x="394.5" y="1369" width="51" height="20" rx="4" fill="#FFFFFF" stroke="#D9D9D9"></rect>
  <text x="420" y="1383.5" font-family="Poppins, system-ui, sans-serif" font-size="11.5" font-weight="600" fill="#595959" text-anchor="middle">Sudah</text>
  <rect x="270" y="1396" width="300" height="66" rx="8" fill="#1890FF" stroke="#1890FF" stroke-width="2"></rect>
  <text x="420" y="1424.4" font-family="Poppins, system-ui, sans-serif" font-size="14" font-weight="600" fill="#FFFFFF" text-anchor="middle">Terima kandidat</text>
  <text x="420" y="1443.4" font-family="Poppins, system-ui, sans-serif" font-size="14" font-weight="600" fill="#FFFFFF" text-anchor="middle">kuota posisi terisi otomatis</text>
  <path d="M420 1462 V1492" fill="none" stroke="#1890FF" stroke-width="2" marker-end="url(#ah-1890FF)"></path>
  <polygon points="420,1496 570,1544 420,1592 270,1544" fill="#FFFBE6" stroke="#FFE58F" stroke-width="2"></polygon>
  <text x="420" y="1548.7" font-family="Poppins, system-ui, sans-serif" font-size="13.5" font-weight="600" fill="#D48806" text-anchor="middle">Kuota lowongan penuh?</text>
  <path d="M570 1544 H726" fill="none" stroke="#1890FF" stroke-width="2" marker-end="url(#ah-1890FF)"></path>
  <rect x="624.5" y="1534" width="51" height="20" rx="4" fill="#FFFFFF" stroke="#D9D9D9"></rect>
  <text x="650" y="1548.5" font-family="Poppins, system-ui, sans-serif" font-size="11.5" font-weight="600" fill="#595959" text-anchor="middle">Belum</text>
  <rect x="730" y="1516" width="300" height="56" rx="8" fill="#FAFAFA" stroke="#D9D9D9" stroke-width="2"></rect>
  <text x="880" y="1548.5" font-family="Poppins, system-ui, sans-serif" font-size="13" font-weight="500" fill="#595959" text-anchor="middle">Lowongan tetap tayang, terima lamaran lain</text>
  <path d="M420 1592 V1622" fill="none" stroke="#1890FF" stroke-width="2" marker-end="url(#ah-1890FF)"></path>
  <rect x="394.5" y="1599" width="51" height="20" rx="4" fill="#FFFFFF" stroke="#D9D9D9"></rect>
  <text x="420" y="1613.5" font-family="Poppins, system-ui, sans-serif" font-size="11.5" font-weight="600" fill="#595959" text-anchor="middle">Penuh</text>
  <rect x="270" y="1626" width="300" height="56" rx="28" fill="#237804"></rect>
  <text x="420" y="1658.9" font-family="Poppins, system-ui, sans-serif" font-size="14" font-weight="600" fill="#FFFFFF" text-anchor="middle">Lowongan ditutup otomatis</text>
  <path d="M1030 1084 H1084 V973 H574" fill="none" stroke="#8C8C8C" stroke-width="2" stroke-dasharray="6 5" marker-end="url(#ah-8C8C8C)"></path>
  <path d="M1030 1314 H1084 V973 H574" fill="none" stroke="#8C8C8C" stroke-width="2" stroke-dasharray="6 5" marker-end="url(#ah-8C8C8C)"></path>
  <path d="M1030 1544 H1084 V877 H574" fill="none" stroke="#8C8C8C" stroke-width="2" stroke-dasharray="6 5" marker-end="url(#ah-8C8C8C)"></path>
</svg>