<svg xmlns="http://www.w3.org/2000/svg" width="600" height="480" viewBox="0 0 600 480" fill="none" role="img" aria-label="Kartu lowongan, grafik serapan alumni, dan tahapan seleksi">
  <defs><pattern id="kkdots" width="14" height="14" patternUnits="userSpaceOnUse"><circle cx="2" cy="2" r="1.6" fill="#91D5FF"></circle></pattern></defs>
  <rect x="70" y="26" width="470" height="360" fill="#E6F7FF"></rect>
  <rect x="18" y="322" width="170" height="130" fill="url(#kkdots)"></rect>
  <rect x="470" y="30" width="14" height="14" fill="#1890FF"></rect>
  <rect x="494" y="54" width="14" height="14" fill="#91D5FF"></rect>
  <rect x="94" y="46" width="300" height="168" rx="10" fill="#FFFFFF" stroke="#D9D9D9" stroke-width="2" opacity="0.75"></rect>
  <rect x="60" y="72" width="316" height="172" rx="10" fill="#FFFFFF" stroke="#D9D9D9" stroke-width="2"></rect>
  <rect x="84" y="96" width="52" height="52" rx="8" fill="#1890FF"></rect>
  <circle cx="140" cy="98" r="8" fill="#FF4D4F"></circle>
  <rect x="150" y="102" width="140" height="13" rx="3" fill="#262626"></rect>
  <rect x="150" y="126" width="96" height="10" rx="3" fill="#8C8C8C"></rect>
  <rect x="286" y="98" width="66" height="22" rx="11" fill="#F6FFED" stroke="#B7EB8F" stroke-width="1.5"></rect>
  <circle cx="300" cy="109" r="3.5" fill="#237804"></circle>
  <rect x="308" y="105" width="34" height="8" rx="3" fill="#237804"></rect>
  <rect x="84" y="172" width="84" height="24" rx="6" fill="#E6F7FF"></rect>
  <rect x="176" y="172" width="66" height="24" rx="6" fill="#FFFBE6"></rect>
  <rect x="250" y="172" width="102" height="24" rx="6" fill="#FAFAFA" stroke="#D9D9D9" stroke-width="1.5"></rect>
  <rect x="300" y="246" width="250" height="150" rx="10" fill="#FFFFFF" stroke="#D9D9D9" stroke-width="2"></rect>
  <rect x="322" y="268" width="96" height="10" rx="3" fill="#262626"></rect>
  <rect x="322" y="286" width="58" height="8" rx="3" fill="#8C8C8C"></rect>
  <rect x="322" y="336" width="24" height="34" fill="#91D5FF"></rect>
  <rect x="356" y="320" width="24" height="50" fill="#1890FF"></rect>
  <rect x="390" y="330" width="24" height="40" fill="#91D5FF"></rect>
  <rect x="424" y="306" width="24" height="64" fill="#1890FF"></rect>
  <rect x="458" y="316" width="24" height="54" fill="#91D5FF"></rect>
  <rect x="492" y="296" width="24" height="74" fill="#1890FF"></rect>
  <line x1="322" y1="372" x2="528" y2="372" stroke="#D9D9D9" stroke-width="2"></line>
  <rect x="30" y="252" width="212" height="112" rx="10" fill="#FFFFFF" stroke="#D9D9D9" stroke-width="2"></rect>
  <path d="M62 364 L62 386 L88 364 Z" fill="#FFFFFF"></path>
  <path d="M62 364 L62 386 L88 364" fill="none" stroke="#D9D9D9" stroke-width="2"></path>
  <rect x="54" y="276" width="120" height="10" rx="3" fill="#8C8C8C"></rect>
  <rect x="54" y="294" width="80" height="10" rx="3" fill="#D9D9D9"></rect>
  <circle cx="62" cy="332" r="7" fill="#1890FF"></circle>
  <circle cx="86" cy="332" r="7" fill="#69C0FF"></circle>
  <circle cx="110" cy="332" r="7" fill="#BAE7FF"></circle>
  <line x1="76" y1="432" x2="446" y2="432" stroke="#D9D9D9" stroke-width="2"></line>
  <circle cx="76" cy="432" r="14" fill="#1890FF"></circle>
  <path d="M70 432 l4 5 l8 -10" fill="none" stroke="#FFFFFF" stroke-width="2.4" stroke-linecap="round"></path>
  <circle cx="199" cy="432" r="14" fill="#1890FF"></circle>
  <path d="M193 432 l4 5 l8 -10" fill="none" stroke="#FFFFFF" stroke-width="2.4" stroke-linecap="round"></path>
  <circle cx="322" cy="432" r="14" fill="#FFFFFF" stroke="#1890FF" stroke-width="2.5"></circle>
  <circle cx="322" cy="432" r="5" fill="#1890FF"></circle>
  <circle cx="446" cy="432" r="14" fill="#FFFFFF" stroke="#D9D9D9" stroke-width="2.5"></circle>
</svg>